<svg width="73" height="74" viewBox="0 0 73 74" fill="none" xmlns="http://www.w3.org/2000/svg">
<g filter="url(#filter0_d_2_315)">
<path fill-rule="evenodd" clip-rule="evenodd" d="M6.08331 35.5C6.08331 19.1615 19.3282 5.91663 35.6666 5.91663H37.3333C53.6718 5.91663 66.9167 19.1615 66.9167 35.5C66.9167 45.2917 62.1595 53.9724 54.8303 59.3568C53.6336 55.7224 51.3248 52.5259 48.208 50.1999C44.8461 47.6909 40.7306 46.3333 36.5 46.3333C32.2693 46.3333 28.1539 47.6909 24.792 50.1998C21.6752 52.5259 19.3663 55.7224 18.1697 59.3568C10.8405 53.9724 6.08331 45.2917 6.08331 35.5ZM47.0118 51.8027C49.9617 54.0043 52.0947 57.069 53.1018 60.535C48.5373 63.4161 43.13 65.0833 37.3333 65.0833H35.6666C29.8699 65.0833 24.4627 63.4161 19.8981 60.5351C20.9053 57.069 23.0382 54.0043 25.9882 51.8027C29.0008 49.5544 32.6957 48.3333 36.5 48.3333C40.3042 48.3333 43.9992 49.5544 47.0118 51.8027ZM28.375 26.625C28.375 22.3017 31.9863 18.75 36.5 18.75C41.0137 18.75 44.625 22.3017 44.625 26.625C44.625 30.9482 41.0137 34.5 36.5 34.5C31.9863 34.5 28.375 30.9482 28.375 26.625ZM36.5 16.75C30.9345 16.75 26.375 21.1451 26.375 26.625C26.375 32.1048 30.9345 36.5 36.5 36.5C42.0655 36.5 46.625 32.1048 46.625 26.625C46.625 21.1451 42.0655 16.75 36.5 16.75Z" fill="white"/>
<rect x="6.58331" y="6.41663" width="59.8333" height="58.1667" rx="29.0833" stroke="white"/>
</g>
<defs>
<filter id="filter0_d_2_315" x="-4" y="0" width="81" height="79" filterUnits="userSpaceOnUse" color-interpolation-filters="sRGB">
<feFlood flood-opacity="0" result="BackgroundImageFix"/>
<feColorMatrix in="SourceAlpha" type="matrix" values="0 0 0 0 0 0 0 0 0 0 0 0 0 0 0 0 0 0 127 0" result="hardAlpha"/>
<feOffset dy="4"/>
<feGaussianBlur stdDeviation="2"/>
<feComposite in2="hardAlpha" operator="out"/>
<feColorMatrix type="matrix" values="0 0 0 0 0 0 0 0 0 0 0 0 0 0 0 0 0 0 0.25 0"/>
<feBlend mode="normal" in2="BackgroundImageFix" result="effect1_dropShadow_2_315"/>
<feBlend mode="normal" in="SourceGraphic" in2="effect1_dropShadow_2_315" result="shape"/>
</filter>
</defs>
</svg>
